# xmcd
# 
# Track frame offsets:
#     150
#     178563
#     205406
#     239725
# 
# Disc length: 3860
# 
# Revision: 2
# Processed by: cddbd v1.5.2PL0 Copyright (c) Steve Scherf et al.
# Submitted via: fre:ac v1.0.17
# 
DISCID=360f1204
DTITLE=John Coltrane - Anthology disk 5
DYEAR=2007
DGENRE=Jazz
TTITLE0=A Love Supreme
TTITLE1=Chasin' The Trane
TTITLE2=Afro-Blue
TTITLE3=Mr.P.C.
EXTD=YEAR: 2007
EXTT0=
EXTT1=
EXTT2=
EXTT3=
PLAYORDER=
